<svg xmlns="http://www.w3.org/2000/svg" width="410" height="124" viewBox="0 0 410 124" role="img" aria-label="Discord: run your server's socials without leaving Discord.">
  <defs><linearGradient id="bg" x1="0" y1="0" x2="1" y2="1"><stop offset="0" stop-color="#0f0e1d"/><stop offset="1" stop-color="#171331"/></linearGradient></defs>
  <rect x="1" y="1" width="408" height="122" rx="18" fill="url(#bg)" stroke="#2a2150" stroke-width="1.5"/>
  <rect x="24" y="40" width="44" height="44" rx="10" fill="#5662EB"/>
  <svg viewBox="0 0 33 32" width="32" height="32" x="30" y="46">
    <path d="M25.4756 7.67453C23.7413 6.88135 21.9106 6.31848 20.0303 6.00024C19.7741 6.46043 19.542 6.93365 19.335 7.418C18.3348 7.26713 17.3247 7.1912 16.3131 7.19083C15.3033 7.19083 14.2885 7.26758 13.291 7.41605C13.0873 6.93519 12.8507 6.45839 12.594 6C10.7135 6.32127 8.88271 6.88527 7.14744 7.67786C3.70111 12.7762 2.76714 17.7471 3.23412 22.6475C5.25217 24.138 7.51076 25.2716 9.9118 25.9991C10.4503 25.2723 10.9326 24.4984 11.3421 23.6931C10.5608 23.4021 9.80676 23.0422 9.08897 22.6179C9.27785 22.481 9.46258 22.3399 9.64107 22.2028C11.7282 23.1831 14.0088 23.6944 16.3162 23.6944C18.6237 23.6944 20.9042 23.1831 22.9915 22.2026C23.1721 22.35 23.3569 22.4912 23.5436 22.6178C22.8244 23.0429 22.069 23.4036 21.2863 23.6959C21.6973 24.5029 22.1758 25.2737 22.7168 26C25.12 25.2748 27.3804 24.1412 29.3989 22.6489L29.3983 22.6495C29.9463 16.9667 28.4622 12.0414 25.4756 7.67453ZM11.9327 19.6338C10.6313 19.6338 9.5562 18.4528 9.5562 16.9999C9.5562 15.547 10.5939 14.3557 11.9285 14.3557C13.2631 14.3557 14.3299 15.547 14.3071 16.9999C14.2842 18.4528 13.259 19.6338 11.9327 19.6338ZM20.6998 19.6338C19.3963 19.6338 18.3253 18.4528 18.3253 16.9999C18.3253 15.547 19.3631 14.3557 20.6998 14.3557C22.0364 14.3557 23.0949 15.547 23.0721 16.9999C23.0493 18.4528 22.026 19.6338 20.6998 19.6338Z" fill="#ffffff"/>
  </svg>
  <text x="90" y="42" font-family="'Segoe UI',Helvetica,Arial,sans-serif" font-size="19" font-weight="700" fill="#ffffff">Discord</text>
  <text x="90" y="66" font-family="'Segoe UI',Helvetica,Arial,sans-serif" font-size="13.5" fill="#c4b5fd">Run your server's socials without</text>
  <text x="90" y="85" font-family="'Segoe UI',Helvetica,Arial,sans-serif" font-size="13.5" fill="#c4b5fd">leaving Discord.</text>
  <text x="90" y="107" font-family="'Segoe UI',Helvetica,Arial,sans-serif" font-size="13" font-weight="600" fill="#8b9cf9">Set-up guide &#187;</text>
</svg>
