<svg xmlns="http://www.w3.org/2000/svg" width="840" height="96" viewBox="0 0 840 96" role="img" aria-label="Views on autopilot. Posts every day. Launches everywhere — while you do your actual job.">
  <defs><linearGradient id="bg" x1="0" y1="0" x2="1" y2="1"><stop offset="0" stop-color="#0f0e1d"/><stop offset="1" stop-color="#171331"/></linearGradient></defs>
  <rect x="1" y="1" width="838" height="94" rx="24" fill="url(#bg)" stroke="#2a2150" stroke-width="1.5"/>
  <g transform="translate(82,40)"><path d="M-10,7 L-3,-1 L2,3 L10,-7" fill="none" stroke="#a78bfa" stroke-width="2.6" stroke-linecap="round" stroke-linejoin="round"/><path d="M3,-7 L10,-7 L10,0" fill="none" stroke="#a78bfa" stroke-width="2.6" stroke-linecap="round" stroke-linejoin="round"/></g>
<text x="107" y="45" font-family="'Segoe UI',Helvetica,Arial,sans-serif" font-size="16" font-weight="700" fill="#ffffff" textLength="180" lengthAdjust="spacingAndGlyphs">Views on autopilot</text>
<circle cx="304" cy="40" r="2.5" fill="#5b21b6"/>
<g transform="translate(334,40)"><rect x="-9" y="-8" width="18" height="16" rx="3" fill="none" stroke="#a78bfa" stroke-width="2.4"/><path d="M-9,-3 H9 M-5,-11 V-8 M5,-11 V-8" stroke="#a78bfa" stroke-width="2.2" fill="none" stroke-linecap="round"/><path d="M-3.5,2 L-1,4.5 L3.5,-0.5" fill="none" stroke="#4ade80" stroke-width="2.2" stroke-linecap="round" stroke-linejoin="round"/></g>
<text x="359" y="45" font-family="'Segoe UI',Helvetica,Arial,sans-serif" font-size="16" font-weight="700" fill="#ffffff" textLength="150" lengthAdjust="spacingAndGlyphs">Posts every day</text>
<circle cx="526" cy="40" r="2.5" fill="#5b21b6"/>
<g transform="translate(556,40)"><circle r="3" fill="#a78bfa"/><path d="M-6,-6 A8.5,8.5 0 0 0 -6,6 M6,-6 A8.5,8.5 0 0 1 6,6" fill="none" stroke="#a78bfa" stroke-width="2.2" stroke-linecap="round"/><path d="M-10,-10 A14,14 0 0 0 -10,10 M10,-10 A14,14 0 0 1 10,10" fill="none" stroke="#7c3aed" stroke-width="2.2" stroke-linecap="round"/></g>
<text x="581" y="45" font-family="'Segoe UI',Helvetica,Arial,sans-serif" font-size="16" font-weight="700" fill="#ffffff" textLength="190" lengthAdjust="spacingAndGlyphs">Launches everywhere</text>
  <text x="420" y="74" text-anchor="middle" font-family="'Segoe UI',Helvetica,Arial,sans-serif" font-size="13" font-style="italic" fill="#a78bfa">— while you do your actual job —</text>
</svg>
