<svg xmlns="http://www.w3.org/2000/svg" width="410" height="112" viewBox="0 0 410 112" role="img" aria-label="Business owners: no time for socials — the cafe, the gym, the store on autopilot.">
  <defs><linearGradient id="bg" x1="0" y1="0" x2="1" y2="1"><stop offset="0" stop-color="#0f0e1d"/><stop offset="1" stop-color="#171331"/></linearGradient></defs>
  <rect x="1" y="1" width="408" height="110" rx="18" fill="url(#bg)" stroke="#2a2150" stroke-width="1.5"/>
  <rect x="24" y="34" width="44" height="44" rx="10" fill="#1b1430" stroke="#f59e0b" stroke-width="1.5"/>
  <g transform="translate(46,56)" fill="none" stroke="#f59e0b" stroke-width="2" stroke-linejoin="round" stroke-linecap="round">
    <path d="M-11,-3 L-9.5,-10 L9.5,-10 L11,-3 Z"/>
    <path d="M-11,-3 Q-11,1.5 -7.3,1.5 Q-3.7,1.5 -3.7,-3 Q-3.7,1.5 0,1.5 Q3.7,1.5 3.7,-3 Q3.7,1.5 7.3,1.5 Q11,1.5 11,-3"/>
    <path d="M-8.5,3 L-8.5,11 L8.5,11 L8.5,3"/>
    <path d="M1.5,11 L1.5,6 L6,6 L6,11"/>
  </g>
  <text x="90" y="44" font-family="'Segoe UI',Helvetica,Arial,sans-serif" font-size="19" font-weight="700" fill="#ffffff">Business owners</text>
  <text x="90" y="68" font-family="'Segoe UI',Helvetica,Arial,sans-serif" font-size="13.5" fill="#c4b5fd">No time for socials: the cafe, the gym,</text>
  <text x="90" y="87" font-family="'Segoe UI',Helvetica,Arial,sans-serif" font-size="13.5" fill="#c4b5fd">the store on autopilot.</text>
</svg>
